<svg xmlns="http://www.w3.org/2000/svg"
    viewBox="0 0 300 300" fill="none">

    <!-- Shadow -->
    <ellipse cx="150" cy="278" rx="79" ry="10" fill="#A89CD3" opacity=".16"/>

    <!-- Feet -->
    <path d="M118 259 L107 274 M118 263 L122 275
      M176 259 L166 275 M176 263 L185 274"
      stroke="#CC914E" stroke-width="8" stroke-linecap="round"/>

    <!-- Wings relaxed at sides -->
    <path d="M83 151 Q47 163 58 207 Q64 224 79 217 L105 184 Z"
      fill="#C89760" stroke="#936747" stroke-width="4"/>
    <path d="M215 148 Q244 140 255 116 Q269 119 257 143
      Q276 131 277 143 Q267 168 244 180
      Q269 175 264 188 Q244 211 215 199 Z"
      fill="#C89760" stroke="#936747" stroke-width="4"/>

    <!-- Body -->
    <path d="M76 105 L68 49 L111 69
      Q147 43 190 66 L220 40 L223 103
      Q240 126 233 170
      Q237 253 151 263
      Q67 259 67 177 Q60 135 76 105 Z"
      fill="#D4AE7C" stroke="#936747" stroke-width="4"/>

    <!-- Face cream patch -->
    <path d="M88 99 Q111 71 146 96
      Q182 70 209 99
      Q228 130 208 161
      Q183 183 148 174
      Q109 187 86 159
      Q67 131 88 99 Z"
      fill="#FFF1D0"/>

    <!-- Belly -->
    <ellipse cx="149" cy="211" rx="57" ry="43" fill="#FFF1D0"/>

    <!-- Ear tufts -->
    <path d="M93 66 L101 53 M128 60 L137 46
      M172 58 L181 47"
      stroke="#936747" stroke-width="4" stroke-linecap="round"/>

    <!-- Happy closed eyes (wink-like crescents) -->
    <path d="M100 115 Q114 106 128 115"
      stroke="#59402E" stroke-width="8" stroke-linecap="round"/>
    <path d="M170 115 Q184 106 198 115"
      stroke="#59402E" stroke-width="8" stroke-linecap="round"/>

    <!-- Rosy cheeks -->
    <ellipse cx="93" cy="140" rx="12" ry="7" fill="#EFABA2" opacity=".8"/>
    <ellipse cx="208" cy="140" rx="12" ry="7" fill="#EFABA2" opacity=".8"/>

    <!-- Beak -->
    <path d="M139 132 Q149 124 159 132 L149 147 Z"
      fill="#E7A34F" stroke="#B97D37" stroke-width="3"/>

    <!-- Big smile -->
    <path d="M122 153 Q149 178 178 153"
      fill="#9B5B38" stroke="#9B5B38" stroke-width="3"/>

    <!-- Purple scarf/chest -->
    <path d="M78 163 Q148 188 222 162 L210 189
      Q155 211 89 186 Z"
      fill="#9980E0" stroke="#7560B6" stroke-width="4"/>
    <path d="M93 185 L76 205 L103 201 L111 187"
      fill="#9980E0" stroke="#7560B6" stroke-width="3"/>

    <!-- Scarf heart detail -->
    <path d="M149 193 C144 186 135 189 135 196 C135 204 149 213 149 213 C149 213 163 204 163 196 C163 189 154 186 149 193 Z"
      fill="#F5D8E4"/>

    <!-- Gold sparkles above head -->
    <path d="M44 71 L35 57 M54 65 L51 48 M32 81 L20 77"
      stroke="#F5CC65" stroke-width="6" stroke-linecap="round"/>

    <!-- Stars around head for happy mood -->
    <path d="M230 55 L235 44 L240 55 L252 55 L243 63 L247 75 L235 67 L223 75 L227 63 L218 55 Z"
      fill="#FFD86B" opacity=".9"/>

  </svg>
